<svg xmlns="http://www.w3.org/2000/svg" viewBox="0 0 24 24" fill="currentColor">
  <path d="M16.8 8.4a1.2 1.2 0 00-1.2 0l-2.8 1.6-1.9 1.1-2.8 1.6a1.2 1.2 0 01-1.2 0L5 11.5a1.2 1.2 0 01-.6-1V8.2a1.1 1.1 0 01.6-1L7 6a1.2 1.2 0 011.2 0l1.9 1.1a1.2 1.2 0 01.6 1v2.3l1.9-1.1V7a1.1 1.1 0 00-.6-1L8.2 3.8a1.2 1.2 0 00-1.2 0L3.1 6a1.1 1.1 0 00-.6 1v4.5a1.1 1.1 0 00.6 1l3.8 2.2a1.2 1.2 0 001.2 0l2.8-1.6 1.9-1.1 2.8-1.6a1.2 1.2 0 011.2 0l1.9 1.1a1.2 1.2 0 01.6 1v2.3a1.1 1.1 0 01-.6 1l-1.9 1.1a1.2 1.2 0 01-1.2 0l-1.9-1.1a1.2 1.2 0 01-.6-1v-2.3l-1.9 1.1v2.4a1.1 1.1 0 00.6 1l3.8 2.2a1.2 1.2 0 001.2 0l3.8-2.2a1.2 1.2 0 00.6-1V11a1.1 1.1 0 00-.6-1z"/>
</svg>
