<svg xmlns="http://www.w3.org/2000/svg" viewBox="0 0 84 84" fill="currentColor">
  <path d="M39.8 27.3v.05L35 1.8 31 .5l-2.5 3.4L39.8 27.3z"/>
  <path d="M42.5 16.7l2 9.9 2.2-10.1-2.2-1.4-2 1.6z"/>
  <path d="M57.8 18.4l-2.7.3-3.1 9.8 6.8-7.7-1-2.4z"/>
  <path d="M80.2 20.5v-4.2l-4.1-1.3L57.1 32.9 80.2 20.5z"/>
  <path d="M33.6 31l-5.7-8.5.1.2-.1-.2-2.6.4-.4 2.6 8.7 5.5z"/>
  <path d="M70.1 39.7L60 41.7l10.1 2.2 1.6-2.1-1.6-2.1z"/>
  <path d="M29.1 41.8L3 38.5.5 41.9l2.5 3.4 26.1-3.5z"/>
  <path d="M19.5 47.4l-.8 2.4 2.1 1.6 9-5.1-10.3 1.1z"/>
  <path d="M22.5 54.6l-.1 2.6 2.5.9 7.2-7.6-10.1 4.1z"/>
  <path d="M35.4 54l-7.7 6.7.7 2.5 2.6.1L35.4 54z"/>
  <path d="M44.6 57l-2.1 10 2.1 1.5 2.1-1.5-2.1-10z"/>
  <path d="M80.3 63l-23.2-12.3 19.2 17.8 4-1.3V63z"/>
  <path d="M54.7 65l-5.2-8.7 1.2 10 2.5.8 1.5-2.1z"/>
  <path d="M39.9 56.2L28.6 79.7l2.5 3.4 4-1.3 4.8-25.6z"/>
</svg>
