<svg width="54" height="60" viewBox="0 0 54 60" fill="#000000" xmlns="http://www.w3.org/2000/svg">
<path fill-rule="evenodd" clip-rule="evenodd" d="M29.9999 5.12196C29.9999 6.7384 28.6568 8.04879 26.9999 8.04879C25.3431 8.04879 23.9999 6.7384 23.9999 5.12196C23.9999 3.50551 25.3431 2.19513 26.9999 2.19513C28.6568 2.19513 29.9999 3.50551 29.9999 5.12196ZM25.6562 10.0746C25.7285 10.0932 25.8014 10.1104 25.875 10.126V16.2688L21.9961 16.2285L25.6562 10.0746ZM28.125 10.126V16.2921L32.1888 16.3343L28.478 10.0381C28.3619 10.0713 28.2442 10.1006 28.125 10.126ZM30.451 8.98195L34.8002 16.3614L43.6231 16.453C43.6693 16.2489 43.7279 16.0494 43.7982 15.8552L30.8779 8.57464C30.7436 8.71813 30.601 8.85413 30.451 8.98195ZM32.0044 6.67449C32.1639 6.18479 32.25 5.66318 32.25 5.12196C32.25 2.29318 29.8994 0 26.9999 0C24.1004 0 21.7499 2.29318 21.7499 5.12196C21.7499 5.66323 21.836 6.18488 21.9955 6.67462L9.01358 13.9899C8.05975 13.0333 6.72601 12.439 5.25001 12.439C2.35051 12.439 0 14.7322 0 17.561C0 20.013 1.76612 22.0626 4.12502 22.5651V37.4349C1.76612 37.9374 0 39.987 0 42.439C0 45.2678 2.35051 47.561 5.25001 47.561C6.96359 47.561 8.48541 46.76 9.44364 45.521L22.2335 52.728C21.9231 53.3818 21.7499 54.1102 21.7499 54.878C21.7499 57.7068 24.1004 60 26.9999 60C29.8994 60 32.25 57.7068 32.25 54.878C32.25 54.1102 32.0768 53.3819 31.7665 52.7281L44.5564 45.521C45.5146 46.7601 47.0364 47.561 48.75 47.561C51.6495 47.561 54 45.2678 54 42.439C54 39.987 52.234 37.9375 49.8751 37.435V22.565C52.234 22.0625 54 20.013 54 17.561C54 14.7322 51.6495 12.439 48.75 12.439C47.274 12.439 45.9403 13.0332 44.9865 13.9898L32.0044 6.67449ZM23.1221 8.57475L10.2019 15.8553C10.2319 15.9382 10.2598 16.0221 10.2855 16.107L19.4107 16.2017L23.6532 9.06847C23.4646 8.91607 23.2871 8.75106 23.1221 8.57475ZM43.6162 43.5159L30.3914 50.968C30.3789 50.9578 30.3665 50.9476 30.354 50.9374L35.0715 43.1708H43.5532C43.5702 43.2871 43.5913 43.4022 43.6162 43.5159ZM32.4561 43.1708L28.352 49.9275C28.2769 49.9081 28.2013 49.8902 28.125 49.874V43.1708H32.4561ZM25.875 43.1708V49.874C25.8018 49.8895 25.7291 49.9066 25.6571 49.9252L21.6533 43.1708H25.875ZM19.0542 43.1708L23.6541 50.9308C23.6389 50.9431 23.6237 50.9555 23.6086 50.9679L10.3838 43.5158C10.4087 43.4021 10.4298 43.2871 10.4468 43.1708H19.0542ZM47.5919 22.5579C47.603 22.5603 47.614 22.5627 47.6251 22.5651V37.4349C47.5059 37.4603 47.3882 37.4896 47.2722 37.5228L42.9532 30.1947L47.5919 22.5579ZM45.5466 21.6193C45.2382 21.3873 44.957 21.1225 44.7085 20.8304L39.2713 23.9475L41.6652 28.0093L45.5466 21.6193ZM43.6185 18.6482C43.6355 18.7251 43.6543 18.8013 43.6749 18.8769L38.1497 22.0444L36.102 18.5702L43.6185 18.6482ZM45.1621 38.6998C45.2071 38.6587 45.2528 38.6184 45.2992 38.5788L41.636 32.3634L39.6817 35.5808L45.1621 38.6998ZM43.7174 40.9757C43.7654 40.8183 43.8209 40.6641 43.8836 40.5135L38.5346 37.4693L36.4048 40.9757H43.7174ZM6.37503 37.4349C6.4948 37.4604 6.61304 37.4899 6.7296 37.5233L11.2255 29.964L6.77882 22.4624C6.64636 22.5017 6.51169 22.536 6.37503 22.5651V37.4349ZM8.70236 38.5802C8.7826 38.6485 8.86069 38.7193 8.93651 38.7922L14.5508 35.5736L12.524 32.1545L8.70236 38.5802ZM10.2826 40.9757C10.2474 40.8601 10.208 40.7462 10.1648 40.6341L15.6772 37.4739L17.753 40.9757H10.2826ZM12.5273 27.7752L8.74053 21.387C8.93893 21.2146 9.12384 21.0277 9.29351 20.8281L14.7965 23.9598L12.5273 27.7752ZM10.4452 18.3039C10.4163 18.4977 10.3763 18.6881 10.3259 18.8743L15.9257 22.0612L18.1131 18.3835L10.4452 18.3039ZM20.6985 18.4103L17.8692 23.1673L25.875 27.7233V18.464L20.6985 18.4103ZM28.125 18.4874V27.7916L36.2097 23.1566L33.4906 18.5431L28.125 18.4874ZM37.3313 25.0597L29.2925 29.6683L37.7381 34.4747L40.348 30.178L37.3313 25.0597ZM25.875 31.6276L17.6171 36.3617L20.3521 40.9757H25.875V31.6276ZM28.125 40.9757V31.5451L36.591 36.3632L33.7894 40.9757H28.125ZM16.74 25.0659L13.8258 29.9658L16.4907 34.4614L24.8393 29.6752L16.74 25.0659ZM5.25001 20.4878C6.90687 20.4878 8.25002 19.1774 8.25002 17.561C8.25002 15.9445 6.90687 14.6341 5.25001 14.6341C3.59315 14.6341 2.25001 15.9445 2.25001 17.561C2.25001 19.1774 3.59315 20.4878 5.25001 20.4878ZM8.25002 42.439C8.25002 44.0555 6.90687 45.3659 5.25001 45.3659C3.59315 45.3659 2.25001 44.0555 2.25001 42.439C2.25001 40.8226 3.59315 39.5122 5.25001 39.5122C6.90687 39.5122 8.25002 40.8226 8.25002 42.439ZM48.75 45.3659C50.4068 45.3659 51.75 44.0555 51.75 42.439C51.75 40.8226 50.4068 39.5122 48.75 39.5122C47.0931 39.5122 45.75 40.8226 45.75 42.439C45.75 44.0555 47.0931 45.3659 48.75 45.3659ZM51.75 17.561C51.75 19.1774 50.4068 20.4878 48.75 20.4878C47.0931 20.4878 45.75 19.1774 45.75 17.561C45.75 15.9445 47.0931 14.6341 48.75 14.6341C50.4068 14.6341 51.75 15.9445 51.75 17.561ZM26.9999 57.8049C28.6568 57.8049 29.9999 56.4945 29.9999 54.878C29.9999 53.2616 28.6568 51.9512 26.9999 51.9512C25.3431 51.9512 23.9999 53.2616 23.9999 54.878C23.9999 56.4945 25.3431 57.8049 26.9999 57.8049Z" fill="#000000"/>
</svg>
