<svg width="52" height="52" viewBox="0 0 52 52" fill="none" xmlns="http://www.w3.org/2000/svg">
<g clip-path="url(#clip0_2736_18625)">
<path d="M31.5645 25.9945C33.9731 24.038 35.9274 21.8826 37.4044 19.5613C39.3586 16.4774 40.3471 13.2608 40.3471 10H36.9385C36.9385 12.6418 36.1205 15.2725 34.4958 17.8259C33.1097 20.0035 31.1327 22.1036 28.7468 23.9496C27.8492 23.3637 26.9289 22.8111 25.9859 22.3026C31.0532 18.7986 33.8254 14.4435 33.8254 10H30.4169C30.4169 13.4266 27.8946 17.0411 23.509 19.9371C23.1568 20.1693 22.7819 20.4014 22.4183 20.6225C21.6912 20.324 20.964 20.0477 20.2255 19.8045V10.0111H16.817V18.8318C15.6808 18.5665 14.5333 18.3675 13.4085 18.2238V10.0111H10V18.0028V21.3188C12.6473 21.3188 15.4536 21.7831 18.2372 22.6342C15.4422 23.7174 12.545 24.3254 10 24.3254V27.6415C12.545 27.6415 15.4309 28.2604 18.2372 29.3326C15.465 30.1838 12.6586 30.648 10 30.648V33.9641V41.9889H13.4085V33.7762C14.5333 33.6435 15.6808 33.4335 16.817 33.1682V41.9889H20.2255V32.1955C20.964 31.9413 21.6912 31.676 22.4183 31.3775C22.7933 31.5986 23.1568 31.8197 23.509 32.0629C27.8946 34.9478 30.4169 38.5734 30.4169 42H33.8254C33.8254 37.5565 31.0418 33.2014 25.9859 29.6974C26.9289 29.1889 27.8492 28.6363 28.7468 28.0504C31.1327 29.8853 33.121 31.9965 34.4958 34.1741C36.1091 36.7275 36.9385 39.3582 36.9385 42H40.3471C40.3471 38.7392 39.3586 35.5226 37.4044 32.4387C35.9387 30.1064 33.9731 27.9509 31.5645 25.9945ZM18.7485 25.9945C20.0664 25.5302 21.3617 24.9665 22.6115 24.3254C23.6795 24.8228 24.7247 25.3865 25.7473 25.9945C24.7361 26.6024 23.6908 27.1661 22.6115 27.6636C21.3617 27.0225 20.0551 26.4698 18.7485 25.9945Z" fill="#8098F9"/>
</g>
</svg>
