<?xml version="1.0" encoding="utf-8"?>
<!-- Generator: Adobe Illustrator 24.0.0, SVG Export Plug-In . SVG Version: 6.00 Build 0)  -->
<svg version="1.1" id="Layer_1" xmlns="http://www.w3.org/2000/svg" xmlns:xlink="http://www.w3.org/1999/xlink" x="0px" y="0px"
	 viewBox="0 0 3328.34 621.26" style="enable-background:new 0 0 3328.34 621.26;" xml:space="preserve">
<g>
	<g>
		<g>
			<g>
				<polygon points="2180,160.44 2299.66,160.44 2299.66,550.01 2383.04,550.01 2383.04,160.44 2502.03,160.44 2502.03,83.05 
					2180,83.05 				"/>
			</g>
		</g>
	</g>
	<g>
		<g>
			<g>
				<path d="M327.74,224.47c0-81.38-55.37-141.42-168.11-141.42H4.87v211.46H4.83v75.38h0.04v180.11h83.38V369.9h48.7
					c59.37,0,88.72,28.68,88.72,109.4v70.71h83.38V475.3c0-57.37-16.01-101.39-44.69-131.41
					C307.06,317.87,327.74,273.84,327.74,224.47z M159.63,294.52H88.26V159.77h70.04c60.7,0,88.06,28.68,88.06,66.04
					C246.35,264.5,220.34,294.52,159.63,294.52z"/>
			</g>
		</g>
	</g>
	<g>
		<g>
			<path d="M1085.33,286.23c21.26,4.96,36.8,10.23,47.92,14.99c5.55-2.64,10.98-5.41,16.15-8.43c22.59-13.18,36.52-27.01,44.6-36.98
				c-9.39-6.92-20.88-13.28-34.45-19.04c-0.51-0.22-1.02-0.43-1.53-0.64c-0.88-0.37-1.75-0.74-2.65-1.1
				c-4.98-2.04-10.08-3.93-15.28-5.66c0,0,0,0.01,0,0.01c-6.29-2.14-12.91-4.18-19.89-6.12c-11.08-3.08-22.89-5.87-35.31-8.37
				c-8.32-1.67-28.41-5.05-28.41-5.05c-41.96-6.53-89.15-10.02-138.09-10.02c-17.86,0-35.48,0.47-52.71,1.37
				c-4.5,22.03-7.63,45.79-9.25,70.37c20.13-1.36,40.91-2.09,61.96-2.09c21.52,0,42.75,0.77,63.3,2.19v-0.03
				c4.1,0.28,8.17,0.6,12.21,0.94c0.66,0.06,1.34,0.09,2,0.15c0,0.01,0,0.01,0,0.02c25,2.15,48.68,5.35,70.24,9.48
				c0-0.01,0-0.02,0-0.04c0.82,0.16,1.61,0.33,2.42,0.49c0.51,0.1,1,0.2,1.51,0.3c3.26,0.65,6.47,1.32,9.62,2.01
				c0.16,0.04,0.33,0.07,0.49,0.1v0.01C1081.9,285.46,1083.64,285.83,1085.33,286.23z"/>
			<path d="M1206.41,266.59c-9.97,12.23-25.51,26.82-48.74,40.38c-4.43,2.58-9.01,5.03-13.69,7.36
				c-10.92,5.85-29.39,13.27-58.66,20.1c-6.16,1.44-12.56,2.78-19.15,4.04c0.37-9.21,0.56-18.49,0.56-27.84
				c0-3.96-0.06-7.91-0.13-11.85c-21.32-4.24-44.92-7.52-69.93-9.74c0.25,7.15,0.4,14.36,0.4,21.61c0,12.54-0.38,25-1.14,37.29
				c-0.02,0-0.04,0-0.07,0c-1.52,24.53-4.53,48.32-8.85,70.57c0.04,0,0.08,0,0.12-0.01c-5.11,26.39-12.08,50.59-20.68,71.14
				c-18.55,44.36-35.23,58.21-55.56,58.21c-0.6,0-1.19-0.01-1.79-0.04c-33.52-1.3-65.28-9.68-93.89-23.63
				c-13.85-6.75-28.93-16.03-41.62-25.84v-0.09c-35.44-27.45-62.99-64.63-78.46-107.51c6.75,2.33,13.88,4.56,21.44,6.66
				c18.26,5.08,38.5,9.37,60.17,12.86c4.73,30.61,11.68,59.3,20.6,85.06c28.04,18.53,60.46,30.86,95.28,34.96
				c-16.24-20.39-33.5-58.13-43.94-111.85c22.56,1.59,45.92,2.41,69.7,2.41c17.6,0,34.98-0.45,51.97-1.33
				c4.49-22.04,7.63-45.78,9.24-70.36c-19.9,1.33-40.42,2.04-61.21,2.04c-19.77,0-39.32-0.63-58.3-1.83v0c-0.02,0-0.04,0-0.06,0
				c-1.49-0.09-2.96-0.21-4.44-0.32c-4.16-0.29-8.29-0.6-12.39-0.94c-1.05-0.09-2.12-0.15-3.16-0.24c0-0.01,0-0.02,0-0.04
				c-24.99-2.17-48.67-5.38-70.19-9.53c0,0.01,0,0.02,0,0.03c-2.72-0.52-5.38-1.07-8.03-1.62c-0.07-0.02-0.15-0.03-0.23-0.05v0
				c-3.44-0.72-6.84-1.46-10.15-2.24c-36.45-8.5-56.18-17.93-65.4-24.1c9.22-6.17,28.95-15.59,65.4-24.1
				c5.93-1.38,12.08-2.69,18.41-3.91c-0.38,9.36-0.58,18.81-0.58,28.32c0,3.71,0.06,7.4,0.12,11.09c21.29,4.27,44.9,7.57,69.9,9.81
				c-0.23-6.82-0.36-13.78-0.36-20.91c0-12.72,0.4-25.38,1.18-37.85c0.01,0,0.02,0,0.03,0c1.53-24.53,4.52-48.34,8.86-70.58
				c0,0-0.01,0-0.01,0c0.77-3.97,1.6-7.87,2.46-11.73c0.2-0.91,0.41-1.81,0.62-2.72c0.73-3.19,1.48-6.33,2.27-9.44
				c0.14-0.57,0.27-1.16,0.41-1.72h0.02c4.19-16.29,9.13-31.43,14.79-44.97c16.85-40.29,36.45-58.33,48.39-58.33v-0.03
				c0.18,0,0.36-0.01,0.55-0.01c61.1,0,119.13,23.16,163.46,65.25c0.08,0.08,1.08,1.05,2.71,2.76l54.91-43.27
				c-5.41-5.95-9.02-9.4-9.7-10.04C1072.6,33.56,997.53,3.6,918.5,3.6c-4.36,0-8.72,0.09-13.11,0.27
				c-162.21,6.78-291.5,140.62-293.88,302.24c-0.1,1.39-0.16,2.79-0.16,4.21c0,1.4,0.06,2.78,0.16,4.16
				c2.07,167.24,138.51,302.7,306.12,303.16c0.15,0,0.29,0.01,0.44,0.01c0.05,0,0.09,0,0.14,0c0.1,0,0.19,0,0.29,0
				c164.82,0,299.7-130.55,306.72-293.67C1226.2,301.46,1223.57,284.05,1206.41,266.59z M806.8,101.23c-0.5,1.16-1.01,2.3-1.5,3.48
				c-12.81,30.63-22.43,66.62-28.49,105.67c-21.69,3.49-41.95,7.78-60.23,12.87c-7.51,2.09-14.59,4.3-21.3,6.61
				C715.36,174.53,755.48,128.73,806.8,101.23z M1028.94,520.69c0.6-1.38,1.2-2.75,1.79-4.15c12.87-30.77,22.51-66.93,28.58-106.17
				c21.94-3.51,42.43-7.84,60.9-12.97c7.69-2.14,14.94-4.4,21.79-6.78C1121.84,446.76,1081.11,493.15,1028.94,520.69z"/>
		</g>
	</g>
	<g>
		<g>
			<path d="M3126.06,195.79c0-28.02,21.34-44.69,48.7-44.69c31.35,0,54.7,18.68,62.04,60.7l78.05-23.35
				c-14.01-71.38-63.37-116.74-142.75-116.74c-72.71,0-130.08,45.36-130.08,122.08c0,130.75,197.46,150.76,197.46,230.81
				c0,36.02-28.02,56.7-60.7,56.7c-38.69,0-66.71-25.35-74.71-69.38l-73.31,21.99l6.18,19.93
				c18.95,61.05,74.26,104.41,138.17,106.09c1.87,0.05,3.76,0.07,5.67,0.07c79.38,0,142.76-50.7,142.76-136.08
				C3323.51,287.85,3126.06,270.5,3126.06,195.79z"/>
		</g>
	</g>
	<g>
		<g>
			<path d="M2098.42,549.92c-0.07-32.19-26.18-58.27-58.39-58.27s-58.32,26.08-58.39,58.27H2098.42z"/>
		</g>
	</g>
	<polygon points="2669.23,472.63 2606.22,472.63 2606.22,429.3 2606.05,429.3 2606.05,83.05 2522.84,83.05 2522.84,550.01 
		2645.22,550.01 	"/>
	<g>
		<g>
			<path d="M2916.39,549.92c-0.07-32.19-26.18-58.27-58.39-58.27s-58.32,26.08-58.39,58.27H2916.39z"/>
		</g>
	</g>
	<g>
		<g>
			<polygon points="2755.87,549.92 2857.94,220.96 2960.02,549.92 3047.33,549.92 2902.42,82.93 2813.47,82.93 2668.56,549.92 			
				"/>
		</g>
	</g>
	<g>
		<g>
			<path d="M437.23,369.9H601c-3.32-17.92-5.14-36.23-5.39-54.79c-0.11-1.72-0.16-3.29-0.16-4.79c0-1.52,0.05-3.11,0.17-4.86
				c0.06-3.66,0.2-7.31,0.38-10.95H437.23V158.44h193.41V83.06H437.23v0h-83.38v466.96h276.8v-77.38H437.23V369.9z"/>
		</g>
	</g>
	<g>
		<g>
			<path d="M1488.16,369.9v-75.38H1294.4V158.44h193.41V83.06H1294.4v0h-83.38v168.3c2.53,0.76,4.86,2.15,6.75,4.08
				c20.94,21.32,24.48,43.1,23.36,69.24c-1.85,43.07-12.2,84.67-30.11,122.82v102.51h276.8v-77.38H1294.4V369.9H1488.16z"/>
		</g>
	</g>
	<polygon points="2089.43,82.93 2000.47,82.93 1869,506.61 1869,549.91 1869,549.92 1942.87,549.92 2044.95,220.96 2147.02,549.92 
		2234.33,549.92 	"/>
	<polygon points="1770.72,82.93 1770.72,374.7 1612.95,82.94 1528.62,82.94 1528.62,549.91 1611.98,549.91 1611.98,256.4 
		1770.57,549.67 1770.72,549.63 1770.72,549.91 1854.08,549.91 1854.08,82.93 	"/>
</g>
</svg>
