<?xml version="1.0" encoding="utf-8"?>
<!-- Generator: Adobe Illustrator 24.0.0, SVG Export Plug-In . SVG Version: 6.00 Build 0)  -->
<svg version="1.1" id="Layer_1" xmlns="http://www.w3.org/2000/svg" xmlns:xlink="http://www.w3.org/1999/xlink" x="0px" y="0px"
	 viewBox="0 0 536.9 536.5" style="enable-background:new 0 0 536.9 536.5;" xml:space="preserve">
<path d="M413.72,247.24c18.53,4.32,32.07,8.91,41.75,13.06c4.84-2.3,9.57-4.72,14.08-7.35c19.68-11.48,31.82-23.54,38.86-32.22
	c-8.19-6.03-18.19-11.57-30.01-16.59c-0.44-0.19-0.89-0.37-1.34-0.56c-0.77-0.32-1.53-0.64-2.31-0.96
	c-4.34-1.78-8.78-3.43-13.32-4.93c0,0,0,0.01,0,0.01c-5.48-1.86-11.25-3.64-17.33-5.34c-9.65-2.69-19.95-5.12-30.77-7.29
	c-7.25-1.46-24.75-4.4-24.75-4.4c-36.56-5.69-77.68-8.73-120.32-8.73c-15.56,0-30.92,0.41-45.93,1.19
	c-3.92,19.19-6.65,39.9-8.06,61.32c17.54-1.18,35.65-1.82,53.99-1.82c18.75,0,37.25,0.67,55.16,1.91v-0.02
	c3.58,0.25,7.12,0.52,10.64,0.82c0.58,0.05,1.17,0.08,1.74,0.13c0,0.01,0,0.01,0,0.02c21.78,1.87,42.42,4.66,61.2,8.26
	c0-0.01,0-0.02,0-0.03c0.71,0.14,1.4,0.29,2.11,0.42c0.44,0.09,0.87,0.18,1.31,0.26c2.84,0.57,5.63,1.15,8.38,1.75
	c0.14,0.03,0.29,0.06,0.43,0.09v0.01C410.74,246.57,412.26,246.9,413.72,247.24z"/>
<path d="M256.94,1.21C115.6,7.12,2.95,123.74,0.88,264.57c-0.08,1.21-0.14,2.43-0.14,3.67c0,1.22,0.05,2.42,0.14,3.62
	c1.8,145.72,120.69,263.76,266.74,264.16c0.13,0,0.25,0.01,0.38,0.01c0.04,0,0.08,0,0.12,0c0.08,0,0.17,0,0.25,0
	c143.61,0,261.15-113.75,267.26-255.89c0.84-19.63-1.44-34.8-16.39-50.02c-8.69,10.66-22.23,23.37-42.47,35.18
	c-3.86,2.25-7.85,4.38-11.93,6.41c-9.52,5.1-25.61,11.57-51.11,17.52c-5.36,1.25-10.94,2.42-16.68,3.52
	c0.32-8.02,0.49-16.11,0.49-24.26c0-3.45-0.05-6.89-0.11-10.33c-18.57-3.7-39.14-6.55-60.93-8.48c0.22,6.23,0.35,12.51,0.35,18.83
	c0,10.92-0.34,21.79-0.99,32.5c-0.02,0-0.04,0-0.06,0c-1.32,21.38-3.94,42.1-7.71,61.49c0.03,0,0.07,0,0.1-0.01
	c-4.45,23-10.53,44.08-18.02,61.99c-16.17,38.66-30.7,50.72-48.41,50.72c-0.52,0-1.04-0.01-1.56-0.03
	c-29.21-1.13-56.88-8.43-81.81-20.59c-12.07-5.89-25.21-13.97-36.26-22.51v-0.08c-30.88-23.92-54.88-56.32-68.37-93.68
	c5.88,2.03,12.09,3.97,18.68,5.8c15.91,4.42,33.55,8.16,52.43,11.2c4.12,26.67,10.17,51.67,17.95,74.12
	c24.44,16.15,52.68,26.89,83.03,30.46c-14.15-17.77-29.19-50.66-38.28-97.46c19.65,1.39,40.02,2.1,60.73,2.1
	c15.34,0,30.48-0.39,45.29-1.16c3.91-19.2,6.64-39.89,8.05-61.31c-17.34,1.16-35.22,1.78-53.33,1.78c-17.23,0-34.26-0.55-50.8-1.6v0
	c-0.02,0-0.03,0-0.05,0c-1.3-0.08-2.57-0.19-3.87-0.27c-3.62-0.25-7.22-0.52-10.79-0.82c-0.91-0.08-1.85-0.13-2.75-0.21
	c0-0.01,0-0.02,0-0.03c-21.77-1.9-42.41-4.69-61.16-8.31c0,0.01,0,0.02,0,0.03c-2.37-0.46-4.69-0.93-6.99-1.42
	c-0.07-0.01-0.13-0.03-0.2-0.04v0c-3-0.63-5.96-1.27-8.84-1.95c-31.76-7.41-48.95-15.62-56.98-21c8.03-5.38,25.22-13.59,56.98-21
	c5.17-1.21,10.53-2.34,16.04-3.4c-0.33,8.16-0.5,16.39-0.5,24.67c0,3.23,0.05,6.45,0.1,9.66c18.55,3.72,39.12,6.59,60.91,8.55
	c-0.2-5.94-0.31-12-0.32-18.22c0-11.09,0.35-22.11,1.03-32.98c0.01,0,0.02,0,0.02,0c1.33-21.37,3.94-42.12,7.72-61.5
	c0,0-0.01,0-0.01,0c0.67-3.46,1.4-6.85,2.14-10.22c0.18-0.8,0.36-1.58,0.54-2.37c0.63-2.78,1.29-5.52,1.98-8.22
	c0.12-0.49,0.23-1.01,0.36-1.5h0.02c3.65-14.19,7.95-27.39,12.89-39.19c14.68-35.11,31.76-50.82,42.17-50.82v-0.02
	c0.16,0,0.32-0.01,0.48-0.01c53.24,0,103.81,20.18,142.43,56.85c0.07,0.07,0.94,0.91,2.36,2.41L461,83.22
	c-4.71-5.18-7.85-8.19-8.45-8.75c-49.91-47.39-115.33-73.5-184.19-73.5C264.56,0.97,260.76,1.05,256.94,1.21z M366.15,447.92
	c11.21-26.81,19.62-58.32,24.9-92.51c19.12-3.06,36.97-6.83,53.06-11.3c6.7-1.86,13.02-3.84,18.99-5.91
	c-17.56,48.91-53.05,89.34-98.51,113.34C365.11,450.34,365.64,449.15,366.15,447.92z M169.73,89.08
	c-11.16,26.69-19.54,58.05-24.83,92.07c-18.9,3.04-36.56,6.78-52.48,11.21c-6.54,1.82-12.71,3.74-18.56,5.76
	c17.5-48.21,52.45-88.12,97.17-112.08C170.6,87.06,170.16,88.05,169.73,89.08z"/>
</svg>
