<svg width="40" height="46" viewBox="0 0 40 46" fill="none" xmlns="http://www.w3.org/2000/svg">
<path d="M17.6905 1.23881C19.1196 0.413723 20.8803 0.413723 22.3094 1.23881L37.691 10.1194C39.1201 10.9444 40.0005 12.4693 40.0005 14.1194V31.8805C40.0005 33.5307 39.1201 35.0555 37.691 35.8806L22.3094 44.7612C20.8803 45.5863 19.1196 45.5863 17.6905 44.7612L2.30897 35.8806C0.879871 35.0555 -0.000488281 33.5307 -0.000488281 31.8805V14.1194C-0.000488281 12.4693 0.879871 10.9444 2.30897 10.1194L17.6905 1.23881Z" fill="url(#paint0_linear_7957_1293)"/>
<g filter="url(#filter0_dd_7957_1293)">
<path d="M29.4097 31.8741C25.9619 35.3219 20.0267 34.9768 20.0267 34.9768C20.0267 34.9768 19.6816 29.0416 23.1294 25.5938C26.5773 22.1459 32.5124 22.491 32.5124 22.491C32.5124 22.491 32.8575 28.4262 29.4097 31.8741Z" fill="url(#paint1_radial_7957_1293)"/>
<path d="M29.4097 31.8741C25.9619 35.3219 20.0267 34.9768 20.0267 34.9768C20.0267 34.9768 19.6816 29.0416 23.1294 25.5938C26.5773 22.1459 32.5124 22.491 32.5124 22.491C32.5124 22.491 32.8575 28.4262 29.4097 31.8741Z" fill="url(#paint2_linear_7957_1293)"/>
<path d="M29.4097 31.8741C25.9619 35.3219 20.0267 34.9768 20.0267 34.9768C20.0267 34.9768 19.6816 29.0416 23.1294 25.5938C26.5773 22.1459 32.5124 22.491 32.5124 22.491C32.5124 22.491 32.8575 28.4262 29.4097 31.8741Z" fill="url(#paint3_linear_7957_1293)"/>
<path d="M10.6988 31.8741C14.1466 35.3219 20.0818 34.9768 20.0818 34.9768C20.0818 34.9768 20.4269 29.0416 16.979 25.5938C13.5312 22.1459 7.59603 22.491 7.59603 22.491C7.59603 22.491 7.25093 28.4262 10.6988 31.8741Z" fill="url(#paint4_radial_7957_1293)"/>
<path d="M10.6988 31.8741C14.1466 35.3219 20.0818 34.9768 20.0818 34.9768C20.0818 34.9768 20.4269 29.0416 16.979 25.5938C13.5312 22.1459 7.59603 22.491 7.59603 22.491C7.59603 22.491 7.25093 28.4262 10.6988 31.8741Z" fill="url(#paint5_linear_7957_1293)"/>
<path d="M10.6988 31.8741C14.1466 35.3219 20.0818 34.9768 20.0818 34.9768C20.0818 34.9768 20.4269 29.0416 16.979 25.5938C13.5312 22.1459 7.59603 22.491 7.59603 22.491C7.59603 22.491 7.25093 28.4262 10.6988 31.8741Z" fill="url(#paint6_linear_7957_1293)"/>
<path d="M19.7201 33.4597C19.7077 33.6489 19.6991 33.8244 19.6935 33.9838C19.6839 34.2571 19.6827 34.4838 19.6844 34.653C19.5329 34.6537 19.3397 34.6518 19.1123 34.6437C18.514 34.6227 17.6807 34.5593 16.7423 34.3903C14.8578 34.0511 12.5894 33.2933 10.9345 31.6384C9.27956 29.9834 8.52178 27.715 8.18252 25.8305C8.01358 24.8921 7.9502 24.0587 7.9291 23.4605C7.91973 23.1948 7.91872 22.9759 7.92046 22.8154C8.08094 22.8137 8.29979 22.8147 8.56552 22.8241C9.16376 22.8452 9.99713 22.9085 10.9355 23.0775C12.82 23.4167 15.0884 24.1745 16.7433 25.8295C18.3982 27.4844 19.156 29.7528 19.4953 31.6373C19.6175 32.3162 19.6845 32.94 19.7201 33.4597ZM20.424 34.653C20.4258 34.4838 20.4246 34.2571 20.4149 33.9838C20.4093 33.8244 20.4008 33.6489 20.3883 33.4597C20.424 32.94 20.491 32.3162 20.6132 31.6373C20.9524 29.7528 21.7102 27.4844 23.3651 25.8295C25.0201 24.1745 27.2884 23.4167 29.1729 23.0775C30.1113 22.9085 30.9447 22.8452 31.543 22.8241C31.8087 22.8147 32.0275 22.8137 32.188 22.8154C32.1897 22.9759 32.1887 23.1948 32.1794 23.4605C32.1583 24.0587 32.0949 24.8921 31.926 25.8305C31.5867 27.715 30.8289 29.9834 29.174 31.6384C27.5191 33.2933 25.2507 34.0511 23.3662 34.3903C22.4278 34.5593 21.5944 34.6227 20.9962 34.6437C20.7687 34.6518 20.5756 34.6537 20.424 34.653Z" stroke="url(#paint7_linear_7957_1293)" stroke-opacity="0.5" stroke-width="0.666667"/>
</g>
<g filter="url(#filter1_ddi_7957_1293)">
<path d="M20.0004 9.52341C20.0004 9.52341 20.8262 12.761 22.2586 14.1935C23.6911 15.626 26.9288 16.4518 26.9288 16.4518C26.9288 16.4518 23.6911 17.2776 22.2586 18.71C20.8262 20.1425 20.0004 23.3801 20.0004 23.3801C20.0004 23.3801 19.1746 20.1425 17.7421 18.71C16.3097 17.2776 13.072 16.4518 13.072 16.4518C13.072 16.4518 16.3097 15.626 17.7421 14.1935C19.1746 12.761 20.0004 9.52341 20.0004 9.52341Z" fill="url(#paint8_linear_7957_1293)"/>
<path d="M14.991 16.7332C14.7147 16.6254 14.4523 16.5314 14.2169 16.4518C14.4523 16.3721 14.7147 16.2781 14.991 16.1704C15.9856 15.7825 17.2094 15.1976 17.9778 14.4292C18.7462 13.6608 19.3311 12.437 19.719 11.4424C19.8268 11.1661 19.9207 10.9037 20.0004 10.6683C20.08 10.9037 20.174 11.1661 20.2818 11.4424C20.6697 12.437 21.2545 13.6608 22.0229 14.4292C22.7913 15.1976 24.0152 15.7825 25.0098 16.1704C25.2861 16.2781 25.5485 16.3721 25.7839 16.4518C25.5485 16.5314 25.2861 16.6254 25.0098 16.7332C24.0152 17.1211 22.7913 17.7059 22.0229 18.4743C21.2545 19.2427 20.6697 20.4666 20.2818 21.4611C20.174 21.7375 20.08 21.9999 20.0004 22.2353C19.9207 21.9999 19.8268 21.7375 19.719 21.4611C19.3311 20.4666 18.7462 19.2427 17.9778 18.4743C17.2094 17.7059 15.9856 17.1211 14.991 16.7332Z" stroke="url(#paint9_linear_7957_1293)" stroke-width="0.666667" stroke-linejoin="round"/>
</g>
<defs>
<filter id="filter0_dd_7957_1293" x="4.50597" y="22.4814" width="31.0965" height="18.6659" filterUnits="userSpaceOnUse" color-interpolation-filters="sRGB">
<feFlood flood-opacity="0" result="BackgroundImageFix"/>
<feColorMatrix in="SourceAlpha" type="matrix" values="0 0 0 0 0 0 0 0 0 0 0 0 0 0 0 0 0 0 127 0" result="hardAlpha"/>
<feMorphology radius="0.513409" operator="erode" in="SourceAlpha" result="effect1_dropShadow_7957_1293"/>
<feOffset dy="1.02682"/>
<feGaussianBlur stdDeviation="0.770113"/>
<feColorMatrix type="matrix" values="0 0 0 0 0.0627451 0 0 0 0 0.0941176 0 0 0 0 0.156863 0 0 0 0.03 0"/>
<feBlend mode="normal" in2="BackgroundImageFix" result="effect1_dropShadow_7957_1293"/>
<feColorMatrix in="SourceAlpha" type="matrix" values="0 0 0 0 0 0 0 0 0 0 0 0 0 0 0 0 0 0 127 0" result="hardAlpha"/>
<feMorphology radius="1.02682" operator="erode" in="SourceAlpha" result="effect2_dropShadow_7957_1293"/>
<feOffset dy="3.08045"/>
<feGaussianBlur stdDeviation="2.05364"/>
<feColorMatrix type="matrix" values="0 0 0 0 0.0627451 0 0 0 0 0.0941176 0 0 0 0 0.156863 0 0 0 0.08 0"/>
<feBlend mode="normal" in2="effect1_dropShadow_7957_1293" result="effect2_dropShadow_7957_1293"/>
<feBlend mode="normal" in="SourceGraphic" in2="effect2_dropShadow_7957_1293" result="shape"/>
</filter>
<filter id="filter1_ddi_7957_1293" x="12.5046" y="9.23972" width="14.9914" height="14.9915" filterUnits="userSpaceOnUse" color-interpolation-filters="sRGB">
<feFlood flood-opacity="0" result="BackgroundImageFix"/>
<feColorMatrix in="SourceAlpha" type="matrix" values="0 0 0 0 0 0 0 0 0 0 0 0 0 0 0 0 0 0 127 0" result="hardAlpha"/>
<feOffset dy="0.141844"/>
<feGaussianBlur stdDeviation="0.141844"/>
<feColorMatrix type="matrix" values="0 0 0 0 0.0627451 0 0 0 0 0.0941176 0 0 0 0 0.156863 0 0 0 0.06 0"/>
<feBlend mode="normal" in2="BackgroundImageFix" result="effect1_dropShadow_7957_1293"/>
<feColorMatrix in="SourceAlpha" type="matrix" values="0 0 0 0 0 0 0 0 0 0 0 0 0 0 0 0 0 0 127 0" result="hardAlpha"/>
<feOffset dy="0.283688"/>
<feGaussianBlur stdDeviation="0.283688"/>
<feColorMatrix type="matrix" values="0 0 0 0 0.0627451 0 0 0 0 0.0941176 0 0 0 0 0.156863 0 0 0 0.1 0"/>
<feBlend mode="normal" in2="effect1_dropShadow_7957_1293" result="effect2_dropShadow_7957_1293"/>
<feBlend mode="normal" in="SourceGraphic" in2="effect2_dropShadow_7957_1293" result="shape"/>
<feColorMatrix in="SourceAlpha" type="matrix" values="0 0 0 0 0 0 0 0 0 0 0 0 0 0 0 0 0 0 127 0" result="hardAlpha"/>
<feOffset dy="0.283688"/>
<feGaussianBlur stdDeviation="0.35461"/>
<feComposite in2="hardAlpha" operator="arithmetic" k2="-1" k3="1"/>
<feColorMatrix type="matrix" values="0 0 0 0 1 0 0 0 0 1 0 0 0 0 1 0 0 0 1 0"/>
<feBlend mode="normal" in2="shape" result="effect3_innerShadow_7957_1293"/>
</filter>
<linearGradient id="paint0_linear_7957_1293" x1="20" y1="-0.0785312" x2="20" y2="46.0785" gradientUnits="userSpaceOnUse">
<stop/>
<stop offset="1" stop-color="#2D3749"/>
</linearGradient>
<radialGradient id="paint1_radial_7957_1293" cx="0" cy="0" r="1" gradientUnits="userSpaceOnUse" gradientTransform="translate(11.1353 8.92941) rotate(36.9219) scale(15.4786 18.2271)">
<stop stop-color="#FFF500"/>
<stop offset="1" stop-color="#27FFB1" stop-opacity="0.53"/>
</radialGradient>
<linearGradient id="paint2_linear_7957_1293" x1="15.3788" y1="38.3131" x2="35.2587" y2="18.925" gradientUnits="userSpaceOnUse">
<stop stop-color="#30FFB4"/>
<stop offset="1" stop-color="#00B68A"/>
</linearGradient>
<linearGradient id="paint3_linear_7957_1293" x1="16.9783" y1="24.8687" x2="16.9783" y2="37.0475" gradientUnits="userSpaceOnUse">
<stop stop-color="#86CEEA"/>
<stop offset="1" stop-color="#6AADFC"/>
</linearGradient>
<radialGradient id="paint4_radial_7957_1293" cx="0" cy="0" r="1" gradientUnits="userSpaceOnUse" gradientTransform="translate(11.1353 8.92941) rotate(36.9219) scale(15.4786 18.2271)">
<stop stop-color="#FFF500"/>
<stop offset="1" stop-color="#27FFB1" stop-opacity="0.53"/>
</radialGradient>
<linearGradient id="paint5_linear_7957_1293" x1="15.3788" y1="38.3131" x2="35.2587" y2="18.925" gradientUnits="userSpaceOnUse">
<stop stop-color="#30FFB4"/>
<stop offset="1" stop-color="#00B68A"/>
</linearGradient>
<linearGradient id="paint6_linear_7957_1293" x1="16.9783" y1="24.8687" x2="16.9783" y2="37.0475" gradientUnits="userSpaceOnUse">
<stop stop-color="#86CEEA"/>
<stop offset="1" stop-color="#6AADFC"/>
</linearGradient>
<linearGradient id="paint7_linear_7957_1293" x1="20.0542" y1="13.4497" x2="20.0542" y2="34.9276" gradientUnits="userSpaceOnUse">
<stop stop-color="white"/>
<stop offset="1" stop-color="white" stop-opacity="0"/>
</linearGradient>
<linearGradient id="paint8_linear_7957_1293" x1="21.9225" y1="8.54911" x2="21.9225" y2="24.6792" gradientUnits="userSpaceOnUse">
<stop stop-color="white"/>
<stop offset="1" stop-color="#CBEEF0"/>
</linearGradient>
<linearGradient id="paint9_linear_7957_1293" x1="20.0004" y1="9.52341" x2="18.4164" y2="22.0981" gradientUnits="userSpaceOnUse">
<stop stop-color="white"/>
<stop offset="1" stop-color="#D0E8E0"/>
</linearGradient>
</defs>
</svg>
